<svg viewBox="0 0 35 31" fill="none" xmlns="http://www.w3.org/2000/svg">
<path d="M0 2.66667C0 2.09203 0.228274 1.54093 0.634602 1.1346C1.04093 0.728274 1.59203 0.5 2.16667 0.5H32.5C33.0746 0.5 33.6257 0.728274 34.0321 1.1346C34.4384 1.54093 34.6667 2.09203 34.6667 2.66667C34.6667 3.2413 34.4384 3.7924 34.0321 4.19873C33.6257 4.60506 33.0746 4.83333 32.5 4.83333H2.16667C1.59203 4.83333 1.04093 4.60506 0.634602 4.19873C0.228274 3.7924 0 3.2413 0 2.66667ZM0 28.6667C0 28.092 0.228274 27.5409 0.634602 27.1346C1.04093 26.7283 1.59203 26.5 2.16667 26.5H32.5C33.0746 26.5 33.6257 26.7283 34.0321 27.1346C34.4384 27.5409 34.6667 28.092 34.6667 28.6667C34.6667 29.2413 34.4384 29.7924 34.0321 30.1987C33.6257 30.6051 33.0746 30.8333 32.5 30.8333H2.16667C1.59203 30.8333 1.04093 30.6051 0.634602 30.1987C0.228274 29.7924 0 29.2413 0 28.6667ZM15.1667 13.5C14.592 13.5 14.0409 13.7283 13.6346 14.1346C13.2283 14.5409 13 15.092 13 15.6667C13 16.2413 13.2283 16.7924 13.6346 17.1987C14.0409 17.6051 14.592 17.8333 15.1667 17.8333H32.5C33.0746 17.8333 33.6257 17.6051 34.0321 17.1987C34.4384 16.7924 34.6667 16.2413 34.6667 15.6667C34.6667 15.092 34.4384 14.5409 34.0321 14.1346C33.6257 13.7283 33.0746 13.5 32.5 13.5H15.1667Z" fill="white"/>
</svg>
